# xmcd
#
# Track frame offsets: 
#        150
#        12525
#        23880
#        40530
#        49080
#        56490
#        73500
#        89415
#        103395
#        111885
#        125385
#        140835
#        152775
#        162345
#        182595
#        197640
#        208125
#
# Disc length: 3020 seconds
#
# Revision: 0
# Processed by: cddbd v1.5.2PL0 Copyright (c) Steve Scherf et al.
# Submitted via: ExactAudioCopyFreeDBPlugin 1.0
#
DISCID=f40bca11
DTITLE=Александр Щербина - 100личные вещи
DYEAR=2012
DGENRE=Blues
TTITLE0=Белая ворона
TTITLE1=30-й скорый
TTITLE2=Дорожные думы (Как я пил с Пушкиным)
TTITLE3=Сны во сне (Поезд)
TTITLE4=Имплантация чувств
TTITLE5=Папуа
TTITLE6=Я умею смотреть
TTITLE7=Импровизация на тему
TTITLE8=Зарисовка FM
TTITLE9=Ода водителям маршрутного такси
TTITLE10=Salle de dances
TTITLE11=Дикие ирисы
TTITLE12=Кофточка тчк
TTITLE13=Нищий в переходе
TTITLE14=Московская колыбельная
TTITLE15=Сочинение на память
TTITLE16=Павелецкий вокзал
EXTD=
EXTT0=
EXTT1=
EXTT2=
EXTT3=
EXTT4=
EXTT5=
EXTT6=
EXTT7=
EXTT8=
EXTT9=
EXTT10=
EXTT11=
EXTT12=
EXTT13=
EXTT14=
EXTT15=
EXTT16=
PLAYORDER=
